<?xml version="1.0" encoding="UTF-8" standalone="no"?>
<!DOCTYPE svg PUBLIC "-//W3C//DTD SVG 1.1//EN" "http://www.w3.org/Graphics/SVG/1.1/DTD/svg11.dtd">
<svg width="100%" height="100%" viewBox="0 0 471 234" version="1.1" xmlns="http://www.w3.org/2000/svg" xmlns:xlink="http://www.w3.org/1999/xlink" xml:space="preserve" xmlns:serif="http://www.serif.com/" style="fill-rule:evenodd;clip-rule:evenodd;stroke-linecap:round;stroke-linejoin:round;stroke-miterlimit:1.5;">
    <rect id="Artboard3" x="0" y="0" width="470.012" height="233.065" style="fill:none;"/>
    <g>
        <g>
            <path d="M174.288,61.987l5.786,-3.11l-3.616,10.881l6.615,-3.519" style="fill:none;stroke:#7099c4;stroke-width:2.92px;"/>
            <path d="M183.471,43.812l11.523,-5.833l-5.533,22.356l11.078,-5.615" style="fill:none;stroke:#7099c4;stroke-width:2.92px;"/>
            <path d="M203.018,29.257l10.876,-4.121l-6.617,25.421l13.889,-5.395" style="fill:none;stroke:#7099c4;stroke-width:2.92px;"/>
        </g>
        <path d="M109.962,44.984l-8.771,-5.587l-20.631,8.05c-7.601,2.235 -12.663,5.911 -14.611,11.354l0,10.957l-13.29,8.423l-2.426,18.949l-5.398,14.642l3.331,11.76l-3.572,13.032l9.158,15.305l2.063,13.348l13.721,10.448l10.13,11.415l11.341,1.321l18.955,-12.905l0,-130.512Z" style="fill:#fbecc8;"/>
        <path d="M109.962,44.984l8.772,-5.587l20.631,8.05c7.6,2.235 12.663,5.911 14.61,11.354l0,10.957l13.29,8.423l2.426,18.949l5.398,14.642l-3.331,11.76l3.573,13.032l-9.159,15.305l-2.062,13.348l-13.721,10.448l-10.13,11.415l-11.342,1.321l-18.955,-12.905l0,-130.512Z" style="fill:#d2dce9;"/>
        <path d="M175.001,122.788c4.066,4.756 5.299,11.337 3.229,17.243c-1.523,5.359 -4.905,10.005 -9.536,13.102c0.91,6.805 -1.19,13.68 -5.748,18.815c-2.941,3.599 -7.048,6.061 -11.609,6.958c-3.272,7.664 -10.934,12.577 -19.264,12.354c-1.199,-0.002 -2.396,-0.081 -3.585,-0.236c-7.441,-0.488 -14.267,-4.345 -18.526,-10.467c-4.261,6.117 -11.087,9.969 -18.526,10.455c-1.188,0.154 -2.386,0.233 -3.584,0.236c-8.33,0.223 -15.993,-4.69 -19.265,-12.354c-4.56,-0.898 -8.667,-3.36 -11.609,-6.959c-4.557,-5.135 -6.657,-12.009 -5.747,-18.815c-4.629,-3.094 -8.011,-7.735 -9.537,-13.089c-2.07,-5.907 -0.836,-12.49 3.232,-17.246c-0.403,-0.669 -0.762,-1.365 -1.072,-2.082c-4.103,-9.659 1.258,-20.721 3.204,-24.211c-0.695,-4.424 -2.053,-19.139 8.952,-24.783c2.204,-1.136 4.539,-2 6.952,-2.572c-2.016,-10.91 3.044,-18.611 9.065,-21.286c1.372,-0.602 2.834,-0.977 4.326,-1.11c0.047,-0.044 0.069,-0.104 0.123,-0.148c10.989,-8.829 22.374,-12.118 29.713,-8.606c1.447,0.695 2.732,1.685 3.773,2.905c1.043,-1.22 2.329,-2.208 3.776,-2.902c7.345,-3.518 18.709,-0.217 29.714,8.606c0.053,0.044 0.075,0.104 0.122,0.148c1.493,0.136 2.953,0.51 4.327,1.11c6.021,2.676 11.08,10.36 9.065,21.286c2.413,0.573 4.747,1.436 6.952,2.572c11.02,5.644 9.646,20.359 8.951,24.783c1.947,3.487 7.292,14.549 3.204,24.211c-0.31,0.717 -0.668,1.413 -1.072,2.082Zm-68.183,33.717l-0,-106.145c0.356,-2.7 -0.968,-5.36 -3.336,-6.704c-3.553,-1.698 -10.467,-0.695 -18.756,4.732c3.741,2.016 6.853,5.028 8.99,8.7c0.313,0.501 0.479,1.08 0.479,1.67c-0,1.729 -1.423,3.151 -3.152,3.151c-1.085,0 -2.097,-0.561 -2.672,-1.481c-3.915,-6.254 -9.204,-8.87 -13.8,-6.83c-3.833,1.705 -6.896,7.037 -5.302,14.863c3.979,0.071 7.851,1.308 11.134,3.556c6.404,4.588 9.782,12.352 8.773,20.164c-0.177,1.586 -1.532,2.799 -3.127,2.799c-1.726,0 -3.147,-1.42 -3.147,-3.146c0,-0.116 0.007,-0.232 0.02,-0.347c0.749,-5.512 -1.595,-11.01 -6.091,-14.285c-4.798,-3.317 -11.354,-3.273 -17.957,0.113c-8.467,4.343 -5.477,18.973 -5.445,19.121c0.167,0.803 0.018,1.64 -0.416,2.336c-0.072,0.1 -6.926,11.149 -3.367,19.494c1.959,4.591 6.914,7.732 14.725,9.336c1.423,0.326 2.441,1.604 2.441,3.064c-0,1.725 -1.42,3.144 -3.144,3.144c-0.186,0 -0.372,-0.016 -0.555,-0.049c-5.092,-0.857 -9.895,-2.955 -13.986,-6.106c-2.122,3.1 -2.645,7.033 -1.408,10.58c1.682,5.61 5.87,9.59 7.502,9.804c1.559,0.203 2.738,1.546 2.738,3.118c-0,0.261 -0.033,0.522 -0.097,0.775c-1.413,5.603 0.034,11.558 3.861,15.888c2.075,2.815 5.271,4.598 8.757,4.886c1.539,-0.172 2.987,0.818 3.386,2.314c0.324,1.16 3.622,11.426 16.772,9.769c15.74,-1.996 16.18,-13.564 16.18,-13.68l-0,-11.608c-4.902,-0.585 -9.803,-2.611 -14.705,-6.065c-0.658,-0.464 -0.816,-1.374 -0.352,-2.032c0.463,-0.658 1.374,-0.816 2.032,-0.352c4.342,3.059 8.683,4.881 13.025,5.453Zm6.288,2.953l0,11.651c0,0.116 0.441,11.684 16.193,13.68c13.143,1.679 16.461,-8.609 16.775,-9.788c0.407,-1.487 1.851,-2.467 3.383,-2.295c3.486,-0.288 6.681,-2.071 8.757,-4.886c3.827,-4.33 5.274,-10.285 3.861,-15.888c-0.064,-0.253 -0.097,-0.514 -0.097,-0.775c0,-1.572 1.179,-2.915 2.738,-3.118c1.632,-0.214 5.82,-4.194 7.502,-9.804c1.235,-3.553 0.704,-7.49 -1.427,-10.589c-4.089,3.15 -8.89,5.247 -13.979,6.106c-0.231,0.053 -0.467,0.079 -0.703,0.079c-1.725,0 -3.145,-1.419 -3.145,-3.144c0,-1.516 1.097,-2.827 2.59,-3.095c7.807,-1.603 12.766,-4.745 14.724,-9.335c3.55,-8.336 -3.295,-19.385 -3.367,-19.495c-0.433,-0.696 -0.582,-1.533 -0.415,-2.336c0.031,-0.148 3.022,-14.784 -5.446,-19.12c-6.609,-3.386 -13.159,-3.43 -17.957,-0.113c-4.5,3.276 -6.846,8.778 -6.093,14.294c0.012,0.115 0.019,0.231 0.019,0.347c-0,1.726 -1.42,3.146 -3.146,3.146c-1.596,0 -2.951,-1.213 -3.127,-2.799c-1.009,-7.812 2.368,-15.576 8.772,-20.164c3.288,-2.251 7.166,-3.488 11.15,-3.556c1.594,-7.826 -1.469,-13.158 -5.301,-14.863c-4.597,-2.04 -9.883,0.576 -13.801,6.83c-0.575,0.92 -1.587,1.481 -2.672,1.481c-1.729,0 -3.151,-1.422 -3.151,-3.151c-0,-0.59 0.165,-1.169 0.478,-1.67c2.138,-3.672 5.25,-6.683 8.99,-8.7c-8.289,-5.427 -15.203,-6.43 -18.756,-4.732c-2.373,1.341 -3.702,4.001 -3.349,6.704l0,106.097c4.231,-0.621 8.461,-2.436 12.692,-5.455c0.655,-0.468 1.566,-0.315 2.034,0.34c0.467,0.655 0.315,1.566 -0.34,2.034c-4.795,3.422 -9.59,5.445 -14.386,6.082Z" style="fill:url(#_Linear1);"/>
        <g>
            <g transform="matrix(7.15149,0,0,7.15149,-649.957,14.8005)">
                <g transform="matrix(12,0,0,12,117.021,23.2477)">
                    <path d="M0.04,-0.032c-0.001,-0.003 -0.001,-0.008 -0.001,-0.013c0,-0.01 0.004,-0.019 0.011,-0.027c0.006,-0.009 0.01,-0.014 0.01,-0.016l-0.018,-0.648c0,-0.002 -0.001,-0.006 -0.003,-0.012c-0.002,-0.006 -0.003,-0.011 -0.003,-0.015c0,-0.005 0.002,-0.01 0.006,-0.014c0.003,-0.005 0.009,-0.009 0.017,-0.012c0.008,-0.003 0.016,-0.006 0.024,-0.007c0.008,-0.001 0.015,-0.002 0.022,-0.002c0.007,0 0.015,0.001 0.025,0.002c0.01,0.001 0.02,0.003 0.03,0.004c0.029,-0.011 0.057,-0.021 0.083,-0.03c0.025,-0.009 0.048,-0.013 0.069,-0.013c0.026,0 0.05,0.006 0.073,0.018c0.023,0.011 0.042,0.028 0.057,0.05c0.016,0.022 0.024,0.046 0.024,0.072c0,0.069 -0.031,0.158 -0.094,0.268c-0.063,0.109 -0.105,0.168 -0.127,0.177c-0.022,0.009 -0.035,0.013 -0.038,0.013c-0.005,0 -0.009,-0.002 -0.013,-0.005c-0.004,-0.003 -0.007,-0.008 -0.01,-0.014c-0.002,0.017 -0.003,0.037 -0.003,0.059c0,0.03 0.001,0.056 0.002,0.077c0.001,0.021 0.003,0.041 0.005,0.06c0,0.005 0.002,0.013 0.005,0.023c0.003,0.01 0.005,0.018 0.005,0.023c0,0.007 -0.002,0.013 -0.005,0.019c-0.004,0.005 -0.011,0.01 -0.02,0.015c-0.01,0.004 -0.021,0.006 -0.033,0.006c-0.022,0 -0.043,-0.005 -0.063,-0.016c-0.021,-0.011 -0.033,-0.025 -0.037,-0.042Zm0.134,-0.6l0.004,0.23c0.029,-0.021 0.06,-0.065 0.095,-0.132c0.035,-0.067 0.052,-0.117 0.052,-0.151c0,-0.015 -0.003,-0.024 -0.01,-0.027c-0.006,-0.003 -0.011,-0.004 -0.014,-0.004c-0.016,0 -0.036,0.008 -0.061,0.025c-0.024,0.017 -0.046,0.036 -0.066,0.059Z" style="fill:#f1af1b;fill-rule:nonzero;"/>
                </g>
                <g transform="matrix(12,0,0,12,122.685,23.2477)">
                    <path d="M0.174,-0.012c-0.006,0.013 -0.015,0.022 -0.028,0.029c-0.013,0.007 -0.027,0.01 -0.042,0.01c-0.024,-0 -0.042,-0.006 -0.053,-0.019c-0.011,-0.013 -0.017,-0.027 -0.017,-0.043c-0,-0.005 0.001,-0.015 0.002,-0.029c0.001,-0.015 0.002,-0.023 0.002,-0.026l-0,-0.374c-0,-0.006 -0.003,-0.013 -0.008,-0.022c-0.005,-0.009 -0.008,-0.015 -0.008,-0.02c-0,-0.005 0.002,-0.01 0.005,-0.016c0.003,-0.006 0.013,-0.011 0.029,-0.016c0.016,-0.005 0.033,-0.007 0.051,-0.007c0.017,0 0.03,0.002 0.04,0.006c0.011,0.003 0.017,0.009 0.019,0.018c0.003,0.009 0.004,0.015 0.004,0.019c0,0.007 -0.003,0.012 -0.008,0.016c-0.005,0.004 -0.008,0.008 -0.008,0.012l0.002,0.036l0.086,-0.091c0.01,-0.011 0.02,-0.023 0.031,-0.035c0.013,-0.012 0.027,-0.018 0.042,-0.018c0.023,0 0.044,0.006 0.064,0.016c0.02,0.011 0.03,0.027 0.03,0.046c0,0.004 -0.001,0.01 -0.003,0.018c-0.001,0.009 -0.014,0.016 -0.039,0.022c-0.025,0.006 -0.041,0.013 -0.048,0.022l-0.163,0.188l-0,0.152c-0,0.014 0.004,0.03 0.012,0.048c0.009,0.018 0.013,0.028 0.013,0.031c-0,0.008 -0.002,0.017 -0.007,0.027Z" style="fill:#f1af1b;fill-rule:nonzero;"/>
                </g>
                <g transform="matrix(12,0,0,12,127.725,23.2477)">
                    <path d="M0.33,-0.516c0.021,0.022 0.037,0.054 0.048,0.095c0.012,0.041 0.018,0.086 0.018,0.135c0,0.085 -0.017,0.158 -0.049,0.22c-0.034,0.061 -0.081,0.092 -0.143,0.092c-0.061,0 -0.108,-0.028 -0.139,-0.084c-0.031,-0.057 -0.047,-0.125 -0.047,-0.205c0,-0.071 0.011,-0.135 0.034,-0.192c0.023,-0.057 0.049,-0.09 0.078,-0.098c0.029,-0.009 0.053,-0.013 0.073,-0.013c0.023,0 0.046,0.004 0.068,0.012c0.022,0.008 0.042,0.021 0.059,0.038Zm-0.192,0.234c0,0.065 0.003,0.116 0.01,0.151c0.007,0.035 0.026,0.054 0.056,0.059c0.019,0.003 0.036,-0.022 0.051,-0.074c0.016,-0.053 0.024,-0.109 0.024,-0.169c0,-0.045 -0.005,-0.081 -0.015,-0.11c-0.009,-0.029 -0.024,-0.043 -0.044,-0.043c-0.024,0 -0.044,0.02 -0.059,0.06c-0.015,0.04 -0.023,0.082 -0.023,0.126Z" style="fill:#f1af1b;fill-rule:nonzero;"/>
                </g>
                <g transform="matrix(12,0,0,12,133.173,23.2477)">
                    <path d="M0.3,0.03c-0.065,0 -0.113,-0.015 -0.144,-0.045c-0.031,-0.029 -0.055,-0.061 -0.072,-0.096c-0.018,-0.012 -0.035,-0.025 -0.051,-0.04c-0.016,-0.016 -0.024,-0.03 -0.024,-0.043c0,-0.006 0.001,-0.011 0.004,-0.015c0.003,-0.004 0.01,-0.009 0.022,-0.015c0.011,-0.007 0.023,-0.012 0.036,-0.015c0.012,-0.003 0.024,-0.005 0.035,-0.005c0.028,0 0.05,0.01 0.066,0.03c0.016,0.02 0.027,0.039 0.032,0.058c0.011,0.023 0.021,0.04 0.028,0.053c0.007,0.013 0.018,0.019 0.032,0.019c0.024,0 0.04,-0.009 0.047,-0.027c0.007,-0.018 0.011,-0.04 0.011,-0.067l0,-0.02c0,-0.037 -0.006,-0.06 -0.018,-0.068c-0.012,-0.009 -0.043,-0.024 -0.095,-0.045c-0.05,-0.021 -0.089,-0.054 -0.115,-0.097c-0.027,-0.043 -0.04,-0.087 -0.04,-0.132c0,-0.072 0.019,-0.137 0.056,-0.195c0.037,-0.058 0.085,-0.087 0.142,-0.087c0.067,0 0.114,0.022 0.141,0.067c0.026,0.045 0.039,0.09 0.039,0.137c0.003,0.009 0.005,0.02 0.008,0.031c0.003,0.011 0.004,0.024 0.004,0.038c0,0.012 -0.002,0.023 -0.007,0.034c-0.004,0.011 -0.012,0.019 -0.023,0.026c-0.011,0.007 -0.023,0.01 -0.036,0.01c-0.022,-0 -0.042,-0.008 -0.061,-0.025c-0.019,-0.017 -0.03,-0.041 -0.035,-0.072c-0.002,-0.011 0.001,-0.022 0.007,-0.033c0.007,-0.011 0.01,-0.018 0.007,-0.021c0.003,-0.009 0.001,-0.018 -0.004,-0.026c-0.005,-0.008 -0.015,-0.012 -0.03,-0.012c-0.023,0 -0.04,0.013 -0.051,0.04c-0.011,0.027 -0.017,0.057 -0.017,0.09c0,0.032 0.01,0.059 0.03,0.08c0.02,0.021 0.053,0.043 0.099,0.064c0.046,0.021 0.082,0.048 0.109,0.079c0.027,0.031 0.04,0.081 0.04,0.149c0,0.052 -0.016,0.098 -0.049,0.137c-0.034,0.039 -0.074,0.059 -0.123,0.059Z" style="fill:#7099c4;fill-rule:nonzero;"/>
                </g>
                <g transform="matrix(12,0,0,12,139.449,23.2477)">
                    <path d="M0.33,-0.516c0.021,0.022 0.037,0.054 0.048,0.095c0.012,0.041 0.018,0.086 0.018,0.135c0,0.085 -0.017,0.158 -0.049,0.22c-0.034,0.061 -0.081,0.092 -0.143,0.092c-0.061,0 -0.108,-0.028 -0.139,-0.084c-0.031,-0.057 -0.047,-0.125 -0.047,-0.205c0,-0.071 0.011,-0.135 0.034,-0.192c0.023,-0.057 0.049,-0.09 0.078,-0.098c0.029,-0.009 0.053,-0.013 0.073,-0.013c0.023,0 0.046,0.004 0.068,0.012c0.022,0.008 0.042,0.021 0.059,0.038Zm-0.192,0.234c0,0.065 0.003,0.116 0.01,0.151c0.007,0.035 0.026,0.054 0.056,0.059c0.019,0.003 0.036,-0.022 0.051,-0.074c0.016,-0.053 0.024,-0.109 0.024,-0.169c0,-0.045 -0.005,-0.081 -0.015,-0.11c-0.009,-0.029 -0.024,-0.043 -0.044,-0.043c-0.024,0 -0.044,0.02 -0.059,0.06c-0.015,0.04 -0.023,0.082 -0.023,0.126Z" style="fill:#7099c4;fill-rule:nonzero;"/>
                </g>
                <g transform="matrix(12,0,0,12,144.897,23.2477)">
                    <path d="M0.184,-0.078l0,0.014c0.001,0.015 0.001,0.026 0.001,0.033c-0,0.017 -0.001,0.03 -0.004,0.04c-0.003,0.009 -0.009,0.018 -0.019,0.027c-0.011,0.009 -0.023,0.013 -0.038,0.013c-0.013,0 -0.025,-0.003 -0.038,-0.011c-0.013,-0.007 -0.023,-0.014 -0.032,-0.022c-0.009,-0.008 -0.014,-0.032 -0.016,-0.072c-0.002,-0.039 -0.003,-0.087 -0.003,-0.144l0,-0.129c0,-0.044 0,-0.09 0.001,-0.137c0,-0.008 -0,-0.016 -0.001,-0.023c-0.001,-0.008 -0.001,-0.016 -0.002,-0.024c0,-0.008 0.001,-0.014 0.002,-0.017c0.001,-0.004 0.003,-0.009 0.008,-0.016c0.004,-0.007 0.009,-0.011 0.016,-0.014c0.006,-0.003 0.013,-0.004 0.022,-0.004c0.017,0 0.036,0.006 0.055,0.017c0.019,0.01 0.031,0.02 0.035,0.029c0.003,0.009 0.005,0.016 0.005,0.023c0,0.006 -0.003,0.016 -0.008,0.029c-0.005,0.013 -0.008,0.023 -0.008,0.028l0,0.138c0.029,-0.061 0.052,-0.106 0.07,-0.137c0.017,-0.031 0.039,-0.057 0.065,-0.078c0.025,-0.021 0.055,-0.031 0.089,-0.031c0.031,-0 0.051,0.026 0.062,0.077c0.01,0.052 0.015,0.122 0.015,0.209l0,0.064c0,0.014 -0,0.028 -0.001,0.041c0,0.014 0,0.028 0,0.041c0.002,0.005 0.006,0.012 0.012,0.021c0.005,0.009 0.008,0.019 0.008,0.029c-0,0.015 -0.009,0.027 -0.027,0.037c-0.018,0.011 -0.038,0.016 -0.061,0.016c-0.015,-0 -0.029,-0.003 -0.04,-0.008c-0.012,-0.005 -0.021,-0.012 -0.028,-0.023c0.001,-0.013 0.001,-0.029 0.002,-0.047c-0,-0.018 0,-0.04 0,-0.065c0,-0.061 -0.001,-0.109 -0.004,-0.145c-0.003,-0.036 -0.008,-0.054 -0.016,-0.055c-0.009,-0.001 -0.026,0.03 -0.052,0.093c-0.027,0.064 -0.05,0.125 -0.07,0.183Z" style="fill:#7099c4;fill-rule:nonzero;"/>
                </g>
                <g transform="matrix(12,0,0,12,151.281,23.2477)">
                    <path d="M0.33,-0.516c0.021,0.022 0.037,0.054 0.048,0.095c0.012,0.041 0.018,0.086 0.018,0.135c0,0.085 -0.017,0.158 -0.049,0.22c-0.034,0.061 -0.081,0.092 -0.143,0.092c-0.061,0 -0.108,-0.028 -0.139,-0.084c-0.031,-0.057 -0.047,-0.125 -0.047,-0.205c0,-0.071 0.011,-0.135 0.034,-0.192c0.023,-0.057 0.049,-0.09 0.078,-0.098c0.029,-0.009 0.053,-0.013 0.073,-0.013c0.023,0 0.046,0.004 0.068,0.012c0.022,0.008 0.042,0.021 0.059,0.038Zm-0.192,0.234c0,0.065 0.003,0.116 0.01,0.151c0.007,0.035 0.026,0.054 0.056,0.059c0.019,0.003 0.036,-0.022 0.051,-0.074c0.016,-0.053 0.024,-0.109 0.024,-0.169c0,-0.045 -0.005,-0.081 -0.015,-0.11c-0.009,-0.029 -0.024,-0.043 -0.044,-0.043c-0.024,0 -0.044,0.02 -0.059,0.06c-0.015,0.04 -0.023,0.082 -0.023,0.126Z" style="fill:#7099c4;fill-rule:nonzero;"/>
                </g>
            </g>
        </g>
        <g>
            <path d="M109.334,24.301l0,-20.55" style="fill:none;stroke:#f1af1a;stroke-width:4.17px;"/>
            <path d="M52.465,49.287l-14.531,-14.531" style="fill:none;stroke:#f1af1a;stroke-width:4.17px;"/>
            <path d="M25.386,121.107l-20.55,0" style="fill:none;stroke:#f1af1a;stroke-width:4.17px;"/>
            <path d="M49.064,178.646l-14.531,14.531" style="fill:none;stroke:#f1af1a;stroke-width:4.17px;"/>
            <path d="M127.063,197.402l-34.397,-0" style="fill:none;stroke:#f1af1a;stroke-width:6.25px;"/>
            <path d="M127.063,208.597l-34.397,0" style="fill:none;stroke:#f1af1a;stroke-width:6.25px;"/>
            <path d="M118.855,219.793l-17.785,-0" style="fill:none;stroke:#f1af1a;stroke-width:6.25px;"/>
        </g>
        <g>
            <path d="M67.71,114.94c7.821,-7.945 16.788,-9.398 26.887,-4.536" style="fill:none;stroke:#f1af1a;stroke-width:2.92px;"/>
            <path d="M67.262,108.636l3.119,3.878" style="fill:none;stroke:#f1af1a;stroke-width:2.92px;"/>
            <path d="M73.114,104.578l2.241,4.82" style="fill:none;stroke:#f1af1a;stroke-width:2.92px;"/>
            <path d="M80.261,102.171l0.892,5.576" style="fill:none;stroke:#f1af1a;stroke-width:2.92px;"/>
            <path d="M86.865,107.882l0.556,-5.711" style="fill:none;stroke:#f1af1a;stroke-width:2.92px;"/>
            <path d="M91.898,109.245l2.109,-5.31" style="fill:none;stroke:#f1af1a;stroke-width:2.92px;"/>
        </g>
        <g>
            <path d="M151.724,103.935c-7.821,7.945 -16.788,9.397 -26.887,4.536" style="fill:none;stroke:#7099c4;stroke-width:2.92px;"/>
            <path d="M152.172,110.238l-3.119,-3.877" style="fill:none;stroke:#7099c4;stroke-width:2.92px;"/>
            <path d="M146.32,114.297l-2.241,-4.82" style="fill:none;stroke:#7099c4;stroke-width:2.92px;"/>
            <path d="M139.173,116.703l-0.892,-5.575" style="fill:none;stroke:#7099c4;stroke-width:2.92px;"/>
            <path d="M132.569,110.993l-0.556,5.71" style="fill:none;stroke:#7099c4;stroke-width:2.92px;"/>
            <path d="M127.536,109.63l-2.109,5.31" style="fill:none;stroke:#7099c4;stroke-width:2.92px;"/>
        </g>
    </g>
    <defs>
        <linearGradient id="_Linear1" x1="0" y1="0" x2="1" y2="0" gradientUnits="userSpaceOnUse" gradientTransform="matrix(138.511,0,0,154.663,40.7067,113.936)"><stop offset="0" style="stop-color:#f1af1a;stop-opacity:1"/><stop offset="0.47" style="stop-color:#f1af1a;stop-opacity:1"/><stop offset="0.53" style="stop-color:#7099c4;stop-opacity:1"/><stop offset="1" style="stop-color:#7099c4;stop-opacity:1"/></linearGradient>
    </defs>
</svg>
