<?xml version="1.0" encoding="UTF-8" standalone="no"?>
<!DOCTYPE svg PUBLIC "-//W3C//DTD SVG 1.1//EN" "http://www.w3.org/Graphics/SVG/1.1/DTD/svg11.dtd">
<svg width="100%" height="100%" viewBox="0 0 471 234" version="1.1" xmlns="http://www.w3.org/2000/svg" xmlns:xlink="http://www.w3.org/1999/xlink" xml:space="preserve" xmlns:serif="http://www.serif.com/" style="fill-rule:evenodd;clip-rule:evenodd;stroke-linecap:round;stroke-linejoin:round;stroke-miterlimit:1.5;">
    <rect id="Artboard3" x="0" y="-0" width="470.012" height="233.065" style="fill:none;"/>
    <g>
        <g>
            <path d="M174.288,61.987l5.786,-3.11l-3.616,10.881l6.615,-3.519" style="fill:none;stroke:#7099c4;stroke-width:2.92px;"/>
            <path d="M183.471,43.812l11.523,-5.833l-5.533,22.356l11.078,-5.615" style="fill:none;stroke:#7099c4;stroke-width:2.92px;"/>
            <path d="M203.018,29.257l10.876,-4.121l-6.617,25.421l13.889,-5.395" style="fill:none;stroke:#7099c4;stroke-width:2.92px;"/>
        </g>
        <path d="M109.962,44.984l-8.771,-5.587l-20.631,8.05c-7.601,2.235 -12.663,5.911 -14.611,11.354l0,10.957l-13.29,8.423l-2.426,18.949l-5.398,14.642l3.331,11.76l-3.572,13.032l9.158,15.305l2.063,13.348l13.721,10.448l10.13,11.415l11.341,1.321l18.955,-12.905l0,-130.512Z" style="fill:#fbecc8;"/>
        <path d="M109.962,44.984l8.772,-5.587l20.631,8.05c7.6,2.235 12.663,5.911 14.61,11.354l0,10.957l13.29,8.423l2.426,18.949l5.398,14.642l-3.331,11.76l3.573,13.032l-9.159,15.305l-2.062,13.348l-13.721,10.448l-10.13,11.415l-11.342,1.321l-18.955,-12.905l0,-130.512Z" style="fill:#d2dce9;"/>
        <path d="M175.001,122.788c4.066,4.756 5.299,11.337 3.229,17.243c-1.523,5.359 -4.905,10.005 -9.536,13.102c0.91,6.805 -1.19,13.68 -5.748,18.815c-2.941,3.599 -7.048,6.061 -11.609,6.958c-3.272,7.664 -10.934,12.577 -19.264,12.354c-1.199,-0.002 -2.396,-0.081 -3.585,-0.236c-7.441,-0.488 -14.267,-4.345 -18.526,-10.467c-4.261,6.117 -11.087,9.969 -18.526,10.455c-1.188,0.154 -2.386,0.233 -3.584,0.236c-8.33,0.223 -15.993,-4.69 -19.265,-12.354c-4.56,-0.898 -8.667,-3.36 -11.609,-6.959c-4.557,-5.135 -6.657,-12.009 -5.747,-18.815c-4.629,-3.094 -8.011,-7.735 -9.537,-13.089c-2.07,-5.907 -0.836,-12.49 3.232,-17.246c-0.403,-0.669 -0.762,-1.365 -1.072,-2.082c-4.103,-9.659 1.258,-20.721 3.204,-24.211c-0.695,-4.424 -2.053,-19.139 8.952,-24.783c2.204,-1.136 4.539,-2 6.952,-2.572c-2.016,-10.91 3.044,-18.611 9.065,-21.286c1.372,-0.602 2.834,-0.977 4.326,-1.11c0.047,-0.044 0.069,-0.104 0.123,-0.148c10.989,-8.829 22.374,-12.118 29.713,-8.606c1.447,0.695 2.732,1.685 3.773,2.905c1.043,-1.22 2.329,-2.208 3.776,-2.902c7.345,-3.518 18.709,-0.217 29.714,8.606c0.053,0.044 0.075,0.104 0.122,0.148c1.493,0.136 2.953,0.51 4.327,1.11c6.021,2.676 11.08,10.36 9.065,21.286c2.413,0.573 4.747,1.436 6.952,2.572c11.02,5.644 9.646,20.359 8.951,24.783c1.947,3.487 7.292,14.549 3.204,24.211c-0.31,0.717 -0.668,1.413 -1.072,2.082Zm-68.183,33.717l-0,-106.145c0.356,-2.7 -0.968,-5.36 -3.336,-6.704c-3.553,-1.698 -10.467,-0.695 -18.756,4.732c3.741,2.016 6.853,5.028 8.99,8.7c0.313,0.501 0.479,1.08 0.479,1.67c-0,1.729 -1.423,3.151 -3.152,3.151c-1.085,0 -2.097,-0.561 -2.672,-1.481c-3.915,-6.254 -9.204,-8.87 -13.8,-6.83c-3.833,1.705 -6.896,7.037 -5.302,14.863c3.979,0.071 7.851,1.308 11.134,3.556c6.404,4.588 9.782,12.352 8.773,20.164c-0.177,1.586 -1.532,2.799 -3.127,2.799c-1.726,0 -3.147,-1.42 -3.147,-3.146c0,-0.116 0.007,-0.232 0.02,-0.347c0.749,-5.512 -1.595,-11.01 -6.091,-14.285c-4.798,-3.317 -11.354,-3.273 -17.957,0.113c-8.467,4.343 -5.477,18.973 -5.445,19.121c0.167,0.803 0.018,1.64 -0.416,2.336c-0.072,0.1 -6.926,11.149 -3.367,19.494c1.959,4.591 6.914,7.732 14.725,9.336c1.423,0.326 2.441,1.604 2.441,3.064c-0,1.725 -1.42,3.144 -3.144,3.144c-0.186,0 -0.372,-0.016 -0.555,-0.049c-5.092,-0.857 -9.895,-2.955 -13.986,-6.106c-2.122,3.1 -2.645,7.033 -1.408,10.58c1.682,5.61 5.87,9.59 7.502,9.804c1.559,0.203 2.738,1.546 2.738,3.118c-0,0.261 -0.033,0.522 -0.097,0.775c-1.413,5.603 0.034,11.558 3.861,15.888c2.075,2.815 5.271,4.598 8.757,4.886c1.539,-0.172 2.987,0.818 3.386,2.314c0.324,1.16 3.622,11.426 16.772,9.769c15.74,-1.996 16.18,-13.564 16.18,-13.68l-0,-11.608c-4.902,-0.585 -9.803,-2.611 -14.705,-6.065c-0.658,-0.464 -0.816,-1.374 -0.352,-2.032c0.463,-0.658 1.374,-0.816 2.032,-0.352c4.342,3.059 8.683,4.881 13.025,5.453Zm6.288,2.953l0,11.651c0,0.116 0.441,11.684 16.193,13.68c13.143,1.679 16.461,-8.609 16.775,-9.788c0.407,-1.487 1.851,-2.467 3.383,-2.295c3.486,-0.288 6.681,-2.071 8.757,-4.886c3.827,-4.33 5.274,-10.285 3.861,-15.888c-0.064,-0.253 -0.097,-0.514 -0.097,-0.775c0,-1.572 1.179,-2.915 2.738,-3.118c1.632,-0.214 5.82,-4.194 7.502,-9.804c1.235,-3.553 0.704,-7.49 -1.427,-10.589c-4.089,3.15 -8.89,5.247 -13.979,6.106c-0.231,0.053 -0.467,0.079 -0.703,0.079c-1.725,0 -3.145,-1.419 -3.145,-3.144c0,-1.516 1.097,-2.827 2.59,-3.095c7.807,-1.603 12.766,-4.745 14.724,-9.335c3.55,-8.336 -3.295,-19.385 -3.367,-19.495c-0.433,-0.696 -0.582,-1.533 -0.415,-2.336c0.031,-0.148 3.022,-14.784 -5.446,-19.12c-6.609,-3.386 -13.159,-3.43 -17.957,-0.113c-4.5,3.276 -6.846,8.778 -6.093,14.294c0.012,0.115 0.019,0.231 0.019,0.347c-0,1.726 -1.42,3.146 -3.146,3.146c-1.596,0 -2.951,-1.213 -3.127,-2.799c-1.009,-7.812 2.368,-15.576 8.772,-20.164c3.288,-2.251 7.166,-3.488 11.15,-3.556c1.594,-7.826 -1.469,-13.158 -5.301,-14.863c-4.597,-2.04 -9.883,0.576 -13.801,6.83c-0.575,0.92 -1.587,1.481 -2.672,1.481c-1.729,0 -3.151,-1.422 -3.151,-3.151c-0,-0.59 0.165,-1.169 0.478,-1.67c2.138,-3.672 5.25,-6.683 8.99,-8.7c-8.289,-5.427 -15.203,-6.43 -18.756,-4.732c-2.373,1.341 -3.702,4.001 -3.349,6.704l0,106.097c4.231,-0.621 8.461,-2.436 12.692,-5.455c0.655,-0.468 1.566,-0.315 2.034,0.34c0.467,0.655 0.315,1.566 -0.34,2.034c-4.795,3.422 -9.59,5.445 -14.386,6.082Z" style="fill:url(#_Linear1);"/>
        <g>
            <g transform="matrix(7.15149,0,0,7.15149,-649.957,14.8005)">
                <g transform="matrix(12,0,0,12,117.021,23.2477)">
                    <path d="M0.04,-0.032c-0.001,-0.003 -0.001,-0.008 -0.001,-0.013c0,-0.01 0.004,-0.019 0.011,-0.027c0.006,-0.009 0.01,-0.014 0.01,-0.016l-0.018,-0.648c0,-0.002 -0.001,-0.006 -0.003,-0.012c-0.002,-0.006 -0.003,-0.011 -0.003,-0.015c0,-0.005 0.002,-0.01 0.006,-0.014c0.003,-0.005 0.009,-0.009 0.017,-0.012c0.008,-0.003 0.016,-0.006 0.024,-0.007c0.008,-0.001 0.015,-0.002 0.022,-0.002c0.007,0 0.015,0.001 0.025,0.002c0.01,0.001 0.02,0.003 0.03,0.004c0.029,-0.011 0.057,-0.021 0.083,-0.03c0.025,-0.009 0.048,-0.013 0.069,-0.013c0.026,0 0.05,0.006 0.073,0.018c0.023,0.011 0.042,0.028 0.057,0.05c0.016,0.022 0.024,0.046 0.024,0.072c0,0.069 -0.031,0.158 -0.094,0.268c-0.063,0.109 -0.105,0.168 -0.127,0.177c-0.022,0.009 -0.035,0.013 -0.038,0.013c-0.005,0 -0.009,-0.002 -0.013,-0.005c-0.004,-0.003 -0.007,-0.008 -0.01,-0.014c-0.002,0.017 -0.003,0.037 -0.003,0.059c0,0.03 0.001,0.056 0.002,0.077c0.001,0.021 0.003,0.041 0.005,0.06c0,0.005 0.002,0.013 0.005,0.023c0.003,0.01 0.005,0.018 0.005,0.023c0,0.007 -0.002,0.013 -0.005,0.019c-0.004,0.005 -0.011,0.01 -0.02,0.015c-0.01,0.004 -0.021,0.006 -0.033,0.006c-0.022,0 -0.043,-0.005 -0.063,-0.016c-0.021,-0.011 -0.033,-0.025 -0.037,-0.042Zm0.134,-0.6l0.004,0.23c0.029,-0.021 0.06,-0.065 0.095,-0.132c0.035,-0.067 0.052,-0.117 0.052,-0.151c0,-0.015 -0.003,-0.024 -0.01,-0.027c-0.006,-0.003 -0.011,-0.004 -0.014,-0.004c-0.016,0 -0.036,0.008 -0.061,0.025c-0.024,0.017 -0.046,0.036 -0.066,0.059Z" style="fill:#f1af1b;fill-rule:nonzero;"/>
                </g>
                <g transform="matrix(12,0,0,12,122.685,23.2477)">
                    <path d="M0.174,-0.012c-0.006,0.013 -0.015,0.022 -0.028,0.029c-0.013,0.007 -0.027,0.01 -0.042,0.01c-0.024,-0 -0.042,-0.006 -0.053,-0.019c-0.011,-0.013 -0.017,-0.027 -0.017,-0.043c-0,-0.005 0.001,-0.015 0.002,-0.029c0.001,-0.015 0.002,-0.023 0.002,-0.026l-0,-0.374c-0,-0.006 -0.003,-0.013 -0.008,-0.022c-0.005,-0.009 -0.008,-0.015 -0.008,-0.02c-0,-0.005 0.002,-0.01 0.005,-0.016c0.003,-0.006 0.013,-0.011 0.029,-0.016c0.016,-0.005 0.033,-0.007 0.051,-0.007c0.017,0 0.03,0.002 0.04,0.006c0.011,0.003 0.017,0.009 0.019,0.018c0.003,0.009 0.004,0.015 0.004,0.019c0,0.007 -0.003,0.012 -0.008,0.016c-0.005,0.004 -0.008,0.008 -0.008,0.012l0.002,0.036l0.086,-0.091c0.01,-0.011 0.02,-0.023 0.031,-0.035c0.013,-0.012 0.027,-0.018 0.042,-0.018c0.023,0 0.044,0.006 0.064,0.016c0.02,0.011 0.03,0.027 0.03,0.046c0,0.004 -0.001,0.01 -0.003,0.018c-0.001,0.009 -0.014,0.016 -0.039,0.022c-0.025,0.006 -0.041,0.013 -0.048,0.022l-0.163,0.188l-0,0.152c-0,0.014 0.004,0.03 0.012,0.048c0.009,0.018 0.013,0.028 0.013,0.031c-0,0.008 -0.002,0.017 -0.007,0.027Z" style="fill:#f1af1b;fill-rule:nonzero;"/>
                </g>
                <g transform="matrix(12,0,0,12,127.725,23.2477)">
                    <path d="M0.33,-0.516c0.021,0.022 0.037,0.054 0.048,0.095c0.012,0.041 0.018,0.086 0.018,0.135c0,0.085 -0.017,0.158 -0.049,0.22c-0.034,0.061 -0.081,0.092 -0.143,0.092c-0.061,0 -0.108,-0.028 -0.139,-0.084c-0.031,-0.057 -0.047,-0.125 -0.047,-0.205c0,-0.071 0.011,-0.135 0.034,-0.192c0.023,-0.057 0.049,-0.09 0.078,-0.098c0.029,-0.009 0.053,-0.013 0.073,-0.013c0.023,0 0.046,0.004 0.068,0.012c0.022,0.008 0.042,0.021 0.059,0.038Zm-0.192,0.234c0,0.065 0.003,0.116 0.01,0.151c0.007,0.035 0.026,0.054 0.056,0.059c0.019,0.003 0.036,-0.022 0.051,-0.074c0.016,-0.053 0.024,-0.109 0.024,-0.169c0,-0.045 -0.005,-0.081 -0.015,-0.11c-0.009,-0.029 -0.024,-0.043 -0.044,-0.043c-0.024,0 -0.044,0.02 -0.059,0.06c-0.015,0.04 -0.023,0.082 -0.023,0.126Z" style="fill:#f1af1b;fill-rule:nonzero;"/>
                </g>
                <g transform="matrix(12,0,0,12,133.173,23.2477)">
                    <path d="M0.3,0.03c-0.065,0 -0.113,-0.015 -0.144,-0.045c-0.031,-0.029 -0.055,-0.061 -0.072,-0.096c-0.018,-0.012 -0.035,-0.025 -0.051,-0.04c-0.016,-0.016 -0.024,-0.03 -0.024,-0.043c0,-0.006 0.001,-0.011 0.004,-0.015c0.003,-0.004 0.01,-0.009 0.022,-0.015c0.011,-0.007 0.023,-0.012 0.036,-0.015c0.012,-0.003 0.024,-0.005 0.035,-0.005c0.028,0 0.05,0.01 0.066,0.03c0.016,0.02 0.027,0.039 0.032,0.058c0.011,0.023 0.021,0.04 0.028,0.053c0.007,0.013 0.018,0.019 0.032,0.019c0.024,0 0.04,-0.009 0.047,-0.027c0.007,-0.018 0.011,-0.04 0.011,-0.067l0,-0.02c0,-0.037 -0.006,-0.06 -0.018,-0.068c-0.012,-0.009 -0.043,-0.024 -0.095,-0.045c-0.05,-0.021 -0.089,-0.054 -0.115,-0.097c-0.027,-0.043 -0.04,-0.087 -0.04,-0.132c0,-0.072 0.019,-0.137 0.056,-0.195c0.037,-0.058 0.085,-0.087 0.142,-0.087c0.067,0 0.114,0.022 0.141,0.067c0.026,0.045 0.039,0.09 0.039,0.137c0.003,0.009 0.005,0.02 0.008,0.031c0.003,0.011 0.004,0.024 0.004,0.038c0,0.012 -0.002,0.023 -0.007,0.034c-0.004,0.011 -0.012,0.019 -0.023,0.026c-0.011,0.007 -0.023,0.01 -0.036,0.01c-0.022,-0 -0.042,-0.008 -0.061,-0.025c-0.019,-0.017 -0.03,-0.041 -0.035,-0.072c-0.002,-0.011 0.001,-0.022 0.007,-0.033c0.007,-0.011 0.01,-0.018 0.007,-0.021c0.003,-0.009 0.001,-0.018 -0.004,-0.026c-0.005,-0.008 -0.015,-0.012 -0.03,-0.012c-0.023,0 -0.04,0.013 -0.051,0.04c-0.011,0.027 -0.017,0.057 -0.017,0.09c0,0.032 0.01,0.059 0.03,0.08c0.02,0.021 0.053,0.043 0.099,0.064c0.046,0.021 0.082,0.048 0.109,0.079c0.027,0.031 0.04,0.081 0.04,0.149c0,0.052 -0.016,0.098 -0.049,0.137c-0.034,0.039 -0.074,0.059 -0.123,0.059Z" style="fill:#7099c4;fill-rule:nonzero;"/>
                </g>
                <g transform="matrix(12,0,0,12,139.449,23.2477)">
                    <path d="M0.33,-0.516c0.021,0.022 0.037,0.054 0.048,0.095c0.012,0.041 0.018,0.086 0.018,0.135c0,0.085 -0.017,0.158 -0.049,0.22c-0.034,0.061 -0.081,0.092 -0.143,0.092c-0.061,0 -0.108,-0.028 -0.139,-0.084c-0.031,-0.057 -0.047,-0.125 -0.047,-0.205c0,-0.071 0.011,-0.135 0.034,-0.192c0.023,-0.057 0.049,-0.09 0.078,-0.098c0.029,-0.009 0.053,-0.013 0.073,-0.013c0.023,0 0.046,0.004 0.068,0.012c0.022,0.008 0.042,0.021 0.059,0.038Zm-0.192,0.234c0,0.065 0.003,0.116 0.01,0.151c0.007,0.035 0.026,0.054 0.056,0.059c0.019,0.003 0.036,-0.022 0.051,-0.074c0.016,-0.053 0.024,-0.109 0.024,-0.169c0,-0.045 -0.005,-0.081 -0.015,-0.11c-0.009,-0.029 -0.024,-0.043 -0.044,-0.043c-0.024,0 -0.044,0.02 -0.059,0.06c-0.015,0.04 -0.023,0.082 -0.023,0.126Z" style="fill:#7099c4;fill-rule:nonzero;"/>
                </g>
                <g transform="matrix(12,0,0,12,144.897,23.2477)">
                    <path d="M0.184,-0.078l0,0.014c0.001,0.015 0.001,0.026 0.001,0.033c-0,0.017 -0.001,0.03 -0.004,0.04c-0.003,0.009 -0.009,0.018 -0.019,0.027c-0.011,0.009 -0.023,0.013 -0.038,0.013c-0.013,0 -0.025,-0.003 -0.038,-0.011c-0.013,-0.007 -0.023,-0.014 -0.032,-0.022c-0.009,-0.008 -0.014,-0.032 -0.016,-0.072c-0.002,-0.039 -0.003,-0.087 -0.003,-0.144l0,-0.129c0,-0.044 0,-0.09 0.001,-0.137c0,-0.008 -0,-0.016 -0.001,-0.023c-0.001,-0.008 -0.001,-0.016 -0.002,-0.024c0,-0.008 0.001,-0.014 0.002,-0.017c0.001,-0.004 0.003,-0.009 0.008,-0.016c0.004,-0.007 0.009,-0.011 0.016,-0.014c0.006,-0.003 0.013,-0.004 0.022,-0.004c0.017,0 0.036,0.006 0.055,0.017c0.019,0.01 0.031,0.02 0.035,0.029c0.003,0.009 0.005,0.016 0.005,0.023c0,0.006 -0.003,0.016 -0.008,0.029c-0.005,0.013 -0.008,0.023 -0.008,0.028l0,0.138c0.029,-0.061 0.052,-0.106 0.07,-0.137c0.017,-0.031 0.039,-0.057 0.065,-0.078c0.025,-0.021 0.055,-0.031 0.089,-0.031c0.031,-0 0.051,0.026 0.062,0.077c0.01,0.052 0.015,0.122 0.015,0.209l0,0.064c0,0.014 -0,0.028 -0.001,0.041c0,0.014 0,0.028 0,0.041c0.002,0.005 0.006,0.012 0.012,0.021c0.005,0.009 0.008,0.019 0.008,0.029c-0,0.015 -0.009,0.027 -0.027,0.037c-0.018,0.011 -0.038,0.016 -0.061,0.016c-0.015,-0 -0.029,-0.003 -0.04,-0.008c-0.012,-0.005 -0.021,-0.012 -0.028,-0.023c0.001,-0.013 0.001,-0.029 0.002,-0.047c-0,-0.018 0,-0.04 0,-0.065c0,-0.061 -0.001,-0.109 -0.004,-0.145c-0.003,-0.036 -0.008,-0.054 -0.016,-0.055c-0.009,-0.001 -0.026,0.03 -0.052,0.093c-0.027,0.064 -0.05,0.125 -0.07,0.183Z" style="fill:#7099c4;fill-rule:nonzero;"/>
                </g>
                <g transform="matrix(12,0,0,12,151.281,23.2477)">
                    <path d="M0.33,-0.516c0.021,0.022 0.037,0.054 0.048,0.095c0.012,0.041 0.018,0.086 0.018,0.135c0,0.085 -0.017,0.158 -0.049,0.22c-0.034,0.061 -0.081,0.092 -0.143,0.092c-0.061,0 -0.108,-0.028 -0.139,-0.084c-0.031,-0.057 -0.047,-0.125 -0.047,-0.205c0,-0.071 0.011,-0.135 0.034,-0.192c0.023,-0.057 0.049,-0.09 0.078,-0.098c0.029,-0.009 0.053,-0.013 0.073,-0.013c0.023,0 0.046,0.004 0.068,0.012c0.022,0.008 0.042,0.021 0.059,0.038Zm-0.192,0.234c0,0.065 0.003,0.116 0.01,0.151c0.007,0.035 0.026,0.054 0.056,0.059c0.019,0.003 0.036,-0.022 0.051,-0.074c0.016,-0.053 0.024,-0.109 0.024,-0.169c0,-0.045 -0.005,-0.081 -0.015,-0.11c-0.009,-0.029 -0.024,-0.043 -0.044,-0.043c-0.024,0 -0.044,0.02 -0.059,0.06c-0.015,0.04 -0.023,0.082 -0.023,0.126Z" style="fill:#7099c4;fill-rule:nonzero;"/>
                </g>
            </g>
            <path d="M187.406,229.72l2.334,-0c0.9,-0 1.681,-0.136 2.342,-0.409c0.662,-0.272 1.212,-0.633 1.651,-1.083c0.439,-0.451 0.764,-0.962 0.975,-1.534c0.212,-0.573 0.317,-1.165 0.317,-1.776c0,-0.611 -0.105,-1.203 -0.317,-1.775c-0.211,-0.573 -0.536,-1.084 -0.975,-1.534c-0.439,-0.45 -0.989,-0.812 -1.651,-1.084c-0.661,-0.272 -1.442,-0.408 -2.342,-0.408l-2.334,-0l-0,9.603Zm-1.201,-10.704l3.918,0c0.734,0 1.47,0.122 2.21,0.367c0.739,0.244 1.406,0.614 2,1.109c0.595,0.494 1.076,1.111 1.442,1.85c0.367,0.739 0.551,1.598 0.551,2.576c-0,0.989 -0.184,1.851 -0.551,2.584c-0.366,0.734 -0.847,1.348 -1.442,1.843c-0.594,0.494 -1.261,0.864 -2,1.108c-0.74,0.245 -1.476,0.367 -2.21,0.367l-3.918,0l0,-11.804Z" style="fill:#4a4a4a;fill-rule:nonzero;"/>
            <path d="M208.93,224.918c-0,-0.678 -0.111,-1.325 -0.334,-1.942c-0.222,-0.617 -0.541,-1.159 -0.958,-1.626c-0.417,-0.467 -0.926,-0.839 -1.526,-1.117c-0.6,-0.278 -1.278,-0.417 -2.034,-0.417c-0.756,0 -1.434,0.139 -2.034,0.417c-0.6,0.278 -1.109,0.65 -1.525,1.117c-0.417,0.467 -0.737,1.009 -0.959,1.626c-0.222,0.617 -0.333,1.264 -0.333,1.942c-0,0.678 0.111,1.326 0.333,1.942c0.222,0.617 0.542,1.159 0.959,1.626c0.416,0.467 0.925,0.839 1.525,1.117c0.6,0.278 1.278,0.417 2.034,0.417c0.756,-0 1.434,-0.139 2.034,-0.417c0.6,-0.278 1.109,-0.65 1.526,-1.117c0.417,-0.467 0.736,-1.009 0.958,-1.626c0.223,-0.616 0.334,-1.264 0.334,-1.942Zm1.3,0c0,0.9 -0.155,1.729 -0.467,2.484c-0.311,0.756 -0.741,1.409 -1.292,1.959c-0.55,0.551 -1.2,0.981 -1.95,1.292c-0.751,0.312 -1.565,0.467 -2.443,0.467c-0.878,0 -1.692,-0.155 -2.442,-0.467c-0.751,-0.311 -1.401,-0.741 -1.951,-1.292c-0.55,-0.55 -0.981,-1.203 -1.292,-1.959c-0.311,-0.755 -0.467,-1.584 -0.467,-2.484c0,-0.9 0.156,-1.728 0.467,-2.484c0.311,-0.756 0.742,-1.409 1.292,-1.959c0.55,-0.55 1.2,-0.981 1.951,-1.292c0.75,-0.311 1.564,-0.467 2.442,-0.467c0.878,0 1.692,0.156 2.443,0.467c0.75,0.311 1.4,0.742 1.95,1.292c0.551,0.55 0.981,1.203 1.292,1.959c0.312,0.756 0.467,1.584 0.467,2.484Z" style="fill:#4a4a4a;fill-rule:nonzero;"/>
            <path d="M222.851,220.967c-0.522,-0.767 -1.283,-1.151 -2.284,-1.151c-0.311,0 -0.617,0.042 -0.917,0.125c-0.3,0.084 -0.569,0.212 -0.808,0.384c-0.239,0.172 -0.431,0.394 -0.576,0.667c-0.144,0.272 -0.216,0.592 -0.216,0.958c-0,0.534 0.15,0.948 0.45,1.243c0.3,0.294 0.672,0.536 1.117,0.725c0.444,0.189 0.931,0.358 1.459,0.508c0.528,0.15 1.014,0.35 1.459,0.601c0.444,0.25 0.816,0.58 1.117,0.992c0.3,0.411 0.45,0.972 0.45,1.683c-0,0.534 -0.114,1.015 -0.342,1.443c-0.228,0.428 -0.528,0.786 -0.9,1.075c-0.373,0.289 -0.79,0.511 -1.251,0.667c-0.461,0.155 -0.925,0.233 -1.392,0.233c-0.722,0 -1.409,-0.136 -2.059,-0.408c-0.65,-0.273 -1.203,-0.72 -1.659,-1.342l1.084,-0.784c0.255,0.434 0.611,0.781 1.067,1.042c0.456,0.261 0.995,0.392 1.617,0.392c0.3,-0 0.6,-0.047 0.9,-0.142c0.301,-0.094 0.57,-0.233 0.809,-0.417c0.239,-0.183 0.436,-0.408 0.592,-0.675c0.155,-0.267 0.233,-0.572 0.233,-0.917c0,-0.411 -0.086,-0.753 -0.258,-1.025c-0.172,-0.272 -0.4,-0.5 -0.684,-0.684c-0.283,-0.183 -0.605,-0.336 -0.967,-0.458c-0.361,-0.123 -0.733,-0.245 -1.117,-0.367c-0.383,-0.122 -0.756,-0.261 -1.117,-0.417c-0.361,-0.155 -0.683,-0.353 -0.967,-0.592c-0.283,-0.239 -0.511,-0.539 -0.683,-0.9c-0.173,-0.361 -0.259,-0.814 -0.259,-1.359c0,-0.567 0.109,-1.061 0.325,-1.484c0.217,-0.422 0.506,-0.772 0.867,-1.05c0.362,-0.278 0.77,-0.484 1.226,-0.617c0.455,-0.133 0.922,-0.2 1.4,-0.2c0.667,0 1.273,0.106 1.817,0.317c0.545,0.211 1.051,0.583 1.518,1.117l-1.051,0.817Z" style="fill:#4a4a4a;fill-rule:nonzero;"/>
            <path d="M236.739,224.918c0,-0.678 -0.111,-1.325 -0.333,-1.942c-0.222,-0.617 -0.542,-1.159 -0.959,-1.626c-0.417,-0.467 -0.925,-0.839 -1.525,-1.117c-0.6,-0.278 -1.278,-0.417 -2.034,-0.417c-0.756,0 -1.434,0.139 -2.034,0.417c-0.6,0.278 -1.109,0.65 -1.526,1.117c-0.417,0.467 -0.736,1.009 -0.958,1.626c-0.223,0.617 -0.334,1.264 -0.334,1.942c0,0.678 0.111,1.326 0.334,1.942c0.222,0.617 0.541,1.159 0.958,1.626c0.417,0.467 0.926,0.839 1.526,1.117c0.6,0.278 1.278,0.417 2.034,0.417c0.756,-0 1.434,-0.139 2.034,-0.417c0.6,-0.278 1.108,-0.65 1.525,-1.117c0.417,-0.467 0.737,-1.009 0.959,-1.626c0.222,-0.616 0.333,-1.264 0.333,-1.942Zm1.301,0c-0,0.9 -0.156,1.729 -0.467,2.484c-0.311,0.756 -0.742,1.409 -1.292,1.959c-0.55,0.551 -1.2,0.981 -1.951,1.292c-0.75,0.312 -1.564,0.467 -2.442,0.467c-0.878,0 -1.692,-0.155 -2.443,-0.467c-0.75,-0.311 -1.4,-0.741 -1.95,-1.292c-0.551,-0.55 -0.981,-1.203 -1.293,-1.959c-0.311,-0.755 -0.466,-1.584 -0.466,-2.484c-0,-0.9 0.155,-1.728 0.466,-2.484c0.312,-0.756 0.742,-1.409 1.293,-1.959c0.55,-0.55 1.2,-0.981 1.95,-1.292c0.751,-0.311 1.565,-0.467 2.443,-0.467c0.878,0 1.692,0.156 2.442,0.467c0.751,0.311 1.401,0.742 1.951,1.292c0.55,0.55 0.981,1.203 1.292,1.959c0.311,0.756 0.467,1.584 0.467,2.484Z" style="fill:#4a4a4a;fill-rule:nonzero;"/>
            <path d="M248.977,229.02l0.033,-0l0,-10.004l1.201,0l-0,11.804l-1.501,0l-7.036,-10.103l-0.033,-0l0,10.103l-1.2,0l-0,-11.804l1.5,0l7.036,10.004Z" style="fill:#4a4a4a;fill-rule:nonzero;"/>
            <path d="M263.615,224.918c0,-0.678 -0.111,-1.325 -0.333,-1.942c-0.222,-0.617 -0.542,-1.159 -0.959,-1.626c-0.417,-0.467 -0.925,-0.839 -1.525,-1.117c-0.601,-0.278 -1.279,-0.417 -2.034,-0.417c-0.756,0 -1.434,0.139 -2.034,0.417c-0.601,0.278 -1.109,0.65 -1.526,1.117c-0.417,0.467 -0.736,1.009 -0.959,1.626c-0.222,0.617 -0.333,1.264 -0.333,1.942c-0,0.678 0.111,1.326 0.333,1.942c0.223,0.617 0.542,1.159 0.959,1.626c0.417,0.467 0.925,0.839 1.526,1.117c0.6,0.278 1.278,0.417 2.034,0.417c0.755,-0 1.433,-0.139 2.034,-0.417c0.6,-0.278 1.108,-0.65 1.525,-1.117c0.417,-0.467 0.737,-1.009 0.959,-1.626c0.222,-0.616 0.333,-1.264 0.333,-1.942Zm1.301,0c-0,0.9 -0.156,1.729 -0.467,2.484c-0.311,0.756 -0.742,1.409 -1.292,1.959c-0.55,0.551 -1.201,0.981 -1.951,1.292c-0.75,0.312 -1.564,0.467 -2.442,0.467c-0.878,0 -1.693,-0.155 -2.443,-0.467c-0.75,-0.311 -1.4,-0.741 -1.951,-1.292c-0.55,-0.55 -0.98,-1.203 -1.292,-1.959c-0.311,-0.755 -0.466,-1.584 -0.466,-2.484c-0,-0.9 0.155,-1.728 0.466,-2.484c0.312,-0.756 0.742,-1.409 1.292,-1.959c0.551,-0.55 1.201,-0.981 1.951,-1.292c0.75,-0.311 1.565,-0.467 2.443,-0.467c0.878,0 1.692,0.156 2.442,0.467c0.75,0.311 1.401,0.742 1.951,1.292c0.55,0.55 0.981,1.203 1.292,1.959c0.311,0.756 0.467,1.584 0.467,2.484Z" style="fill:#4a4a4a;fill-rule:nonzero;"/>
            <path d="M280.488,229.02l0.033,-0l0,-10.004l1.201,0l-0,11.804l-1.501,0l-7.036,-10.103l-0.033,-0l-0,10.103l-1.2,0l-0,-11.804l1.5,0l7.036,10.004Z" style="fill:#4a4a4a;fill-rule:nonzero;"/>
            <path d="M286.473,226.619l5.119,-0l-2.551,-6.202l-2.568,6.202Zm-1.75,4.201l-1.401,0l5.135,-11.804l1.167,0l5.135,11.804l-1.4,0l-1.301,-3.101l-6.035,0l-1.3,3.101Z" style="fill:#4a4a4a;fill-rule:nonzero;"/>
            <path d="M301.945,220.967c-0.522,-0.767 -1.284,-1.151 -2.284,-1.151c-0.311,0 -0.617,0.042 -0.917,0.125c-0.3,0.084 -0.57,0.212 -0.809,0.384c-0.239,0.172 -0.43,0.394 -0.575,0.667c-0.144,0.272 -0.217,0.592 -0.217,0.958c0,0.534 0.151,0.948 0.451,1.243c0.3,0.294 0.672,0.536 1.117,0.725c0.444,0.189 0.931,0.358 1.459,0.508c0.527,0.15 1.014,0.35 1.458,0.601c0.445,0.25 0.817,0.58 1.117,0.992c0.301,0.411 0.451,0.972 0.451,1.683c-0,0.534 -0.114,1.015 -0.342,1.443c-0.228,0.428 -0.528,0.786 -0.901,1.075c-0.372,0.289 -0.789,0.511 -1.25,0.667c-0.461,0.155 -0.925,0.233 -1.392,0.233c-0.723,0 -1.409,-0.136 -2.059,-0.408c-0.65,-0.273 -1.203,-0.72 -1.659,-1.342l1.084,-0.784c0.255,0.434 0.611,0.781 1.067,1.042c0.455,0.261 0.994,0.392 1.617,0.392c0.3,-0 0.6,-0.047 0.9,-0.142c0.3,-0.094 0.57,-0.233 0.809,-0.417c0.239,-0.183 0.436,-0.408 0.592,-0.675c0.155,-0.267 0.233,-0.572 0.233,-0.917c0,-0.411 -0.086,-0.753 -0.258,-1.025c-0.173,-0.272 -0.4,-0.5 -0.684,-0.684c-0.283,-0.183 -0.606,-0.336 -0.967,-0.458c-0.361,-0.123 -0.733,-0.245 -1.117,-0.367c-0.383,-0.122 -0.756,-0.261 -1.117,-0.417c-0.361,-0.155 -0.684,-0.353 -0.967,-0.592c-0.283,-0.239 -0.511,-0.539 -0.684,-0.9c-0.172,-0.361 -0.258,-0.814 -0.258,-1.359c0,-0.567 0.108,-1.061 0.325,-1.484c0.217,-0.422 0.506,-0.772 0.867,-1.05c0.361,-0.278 0.77,-0.484 1.226,-0.617c0.455,-0.133 0.922,-0.2 1.4,-0.2c0.667,0 1.273,0.106 1.817,0.317c0.545,0.211 1.051,0.583 1.517,1.117l-1.05,0.817Z" style="fill:#4a4a4a;fill-rule:nonzero;"/>
            <path d="M311.465,229.72l6.319,-0l-0,1.1l-7.519,0l-0,-11.804l7.319,0l-0,1.101l-6.119,-0l0,4.018l5.719,-0l-0,1.1l-5.719,-0l0,4.485Z" style="fill:#4a4a4a;fill-rule:nonzero;"/>
            <path d="M325.737,220.967c-0.523,-0.767 -1.284,-1.151 -2.284,-1.151c-0.312,0 -0.617,0.042 -0.917,0.125c-0.301,0.084 -0.57,0.212 -0.809,0.384c-0.239,0.172 -0.431,0.394 -0.575,0.667c-0.145,0.272 -0.217,0.592 -0.217,0.958c-0,0.534 0.15,0.948 0.45,1.243c0.3,0.294 0.673,0.536 1.117,0.725c0.445,0.189 0.931,0.358 1.459,0.508c0.528,0.15 1.014,0.35 1.459,0.601c0.444,0.25 0.817,0.58 1.117,0.992c0.3,0.411 0.45,0.972 0.45,1.683c0,0.534 -0.114,1.015 -0.342,1.443c-0.228,0.428 -0.528,0.786 -0.9,1.075c-0.372,0.289 -0.789,0.511 -1.25,0.667c-0.462,0.155 -0.926,0.233 -1.393,0.233c-0.722,0 -1.408,-0.136 -2.059,-0.408c-0.65,-0.273 -1.203,-0.72 -1.659,-1.342l1.084,-0.784c0.256,0.434 0.611,0.781 1.067,1.042c0.456,0.261 0.995,0.392 1.617,0.392c0.301,-0 0.601,-0.047 0.901,-0.142c0.3,-0.094 0.569,-0.233 0.808,-0.417c0.239,-0.183 0.437,-0.408 0.592,-0.675c0.156,-0.267 0.234,-0.572 0.234,-0.917c-0,-0.411 -0.087,-0.753 -0.259,-1.025c-0.172,-0.272 -0.4,-0.5 -0.683,-0.684c-0.284,-0.183 -0.606,-0.336 -0.967,-0.458c-0.362,-0.123 -0.734,-0.245 -1.117,-0.367c-0.384,-0.122 -0.756,-0.261 -1.117,-0.417c-0.362,-0.155 -0.684,-0.353 -0.967,-0.592c-0.284,-0.239 -0.512,-0.539 -0.684,-0.9c-0.172,-0.361 -0.258,-0.814 -0.258,-1.359c-0,-0.567 0.108,-1.061 0.325,-1.484c0.216,-0.422 0.505,-0.772 0.867,-1.05c0.361,-0.278 0.769,-0.484 1.225,-0.617c0.456,-0.133 0.923,-0.2 1.401,-0.2c0.666,0 1.272,0.106 1.817,0.317c0.544,0.211 1.05,0.583 1.517,1.117l-1.05,0.817Z" style="fill:#4a4a4a;fill-rule:nonzero;"/>
            <path d="M339.141,228.953c-0.2,0.3 -0.447,0.583 -0.742,0.85c-0.294,0.267 -0.63,0.498 -1.008,0.692c-0.378,0.195 -0.787,0.347 -1.226,0.459c-0.439,0.111 -0.903,0.166 -1.392,0.166c-0.878,0 -1.692,-0.155 -2.442,-0.467c-0.751,-0.311 -1.401,-0.741 -1.951,-1.292c-0.55,-0.55 -0.981,-1.203 -1.292,-1.959c-0.311,-0.755 -0.467,-1.584 -0.467,-2.484c-0,-0.9 0.156,-1.728 0.467,-2.484c0.311,-0.756 0.742,-1.409 1.292,-1.959c0.55,-0.55 1.2,-0.981 1.951,-1.292c0.75,-0.311 1.564,-0.467 2.442,-0.467c0.734,0 1.467,0.145 2.201,0.434c0.733,0.288 1.361,0.766 1.884,1.433l-1.051,0.784c-0.122,-0.189 -0.289,-0.378 -0.5,-0.567c-0.211,-0.189 -0.453,-0.356 -0.725,-0.5c-0.272,-0.145 -0.564,-0.261 -0.875,-0.35c-0.311,-0.089 -0.623,-0.134 -0.934,-0.134c-0.756,0 -1.434,0.139 -2.034,0.417c-0.6,0.278 -1.109,0.65 -1.525,1.117c-0.417,0.467 -0.737,1.009 -0.959,1.626c-0.222,0.617 -0.334,1.264 -0.334,1.942c0,0.678 0.112,1.326 0.334,1.942c0.222,0.617 0.542,1.159 0.959,1.626c0.416,0.467 0.925,0.839 1.525,1.117c0.6,0.278 1.278,0.417 2.034,0.417c0.311,-0 0.62,-0.028 0.925,-0.083c0.306,-0.056 0.606,-0.151 0.901,-0.284c0.294,-0.133 0.572,-0.314 0.833,-0.542c0.262,-0.228 0.503,-0.514 0.726,-0.858l0.983,0.7Z" style="fill:#4a4a4a;fill-rule:nonzero;"/>
            <path d="M351.362,224.918c0,-0.678 -0.111,-1.325 -0.333,-1.942c-0.223,-0.617 -0.542,-1.159 -0.959,-1.626c-0.417,-0.467 -0.925,-0.839 -1.526,-1.117c-0.6,-0.278 -1.278,-0.417 -2.034,-0.417c-0.755,0 -1.433,0.139 -2.034,0.417c-0.6,0.278 -1.108,0.65 -1.525,1.117c-0.417,0.467 -0.736,1.009 -0.959,1.626c-0.222,0.617 -0.333,1.264 -0.333,1.942c-0,0.678 0.111,1.326 0.333,1.942c0.223,0.617 0.542,1.159 0.959,1.626c0.417,0.467 0.925,0.839 1.525,1.117c0.601,0.278 1.279,0.417 2.034,0.417c0.756,-0 1.434,-0.139 2.034,-0.417c0.601,-0.278 1.109,-0.65 1.526,-1.117c0.417,-0.467 0.736,-1.009 0.959,-1.626c0.222,-0.616 0.333,-1.264 0.333,-1.942Zm1.301,0c-0,0.9 -0.156,1.729 -0.467,2.484c-0.312,0.756 -0.742,1.409 -1.292,1.959c-0.551,0.551 -1.201,0.981 -1.951,1.292c-0.75,0.312 -1.564,0.467 -2.443,0.467c-0.878,0 -1.692,-0.155 -2.442,-0.467c-0.75,-0.311 -1.401,-0.741 -1.951,-1.292c-0.55,-0.55 -0.981,-1.203 -1.292,-1.959c-0.311,-0.755 -0.467,-1.584 -0.467,-2.484c0,-0.9 0.156,-1.728 0.467,-2.484c0.311,-0.756 0.742,-1.409 1.292,-1.959c0.55,-0.55 1.201,-0.981 1.951,-1.292c0.75,-0.311 1.564,-0.467 2.442,-0.467c0.879,0 1.693,0.156 2.443,0.467c0.75,0.311 1.4,0.742 1.951,1.292c0.55,0.55 0.98,1.203 1.292,1.959c0.311,0.756 0.467,1.584 0.467,2.484Z" style="fill:#4a4a4a;fill-rule:nonzero;"/>
            <path d="M356.264,229.72l5.502,-0l-0,1.1l-6.703,0l0,-11.804l1.201,0l-0,10.704Z" style="fill:#4a4a4a;fill-rule:nonzero;"/>
            <path d="M364.95,226.619l5.119,-0l-2.551,-6.202l-2.568,6.202Zm-1.751,4.201l-1.4,0l5.135,-11.804l1.167,0l5.135,11.804l-1.4,0l-1.301,-3.101l-6.035,0l-1.301,3.101Z" style="fill:#4a4a4a;fill-rule:nonzero;"/>
            <path d="M380.422,220.967c-0.522,-0.767 -1.284,-1.151 -2.284,-1.151c-0.311,0 -0.617,0.042 -0.917,0.125c-0.3,0.084 -0.57,0.212 -0.809,0.384c-0.239,0.172 -0.43,0.394 -0.575,0.667c-0.144,0.272 -0.217,0.592 -0.217,0.958c0,0.534 0.15,0.948 0.451,1.243c0.3,0.294 0.672,0.536 1.117,0.725c0.444,0.189 0.931,0.358 1.458,0.508c0.528,0.15 1.015,0.35 1.459,0.601c0.445,0.25 0.817,0.58 1.117,0.992c0.3,0.411 0.451,0.972 0.451,1.683c-0,0.534 -0.114,1.015 -0.342,1.443c-0.228,0.428 -0.528,0.786 -0.901,1.075c-0.372,0.289 -0.789,0.511 -1.25,0.667c-0.461,0.155 -0.925,0.233 -1.392,0.233c-0.723,0 -1.409,-0.136 -2.059,-0.408c-0.65,-0.273 -1.203,-0.72 -1.659,-1.342l1.084,-0.784c0.255,0.434 0.611,0.781 1.067,1.042c0.455,0.261 0.994,0.392 1.617,0.392c0.3,-0 0.6,-0.047 0.9,-0.142c0.3,-0.094 0.57,-0.233 0.809,-0.417c0.239,-0.183 0.436,-0.408 0.592,-0.675c0.155,-0.267 0.233,-0.572 0.233,-0.917c0,-0.411 -0.086,-0.753 -0.258,-1.025c-0.173,-0.272 -0.401,-0.5 -0.684,-0.684c-0.283,-0.183 -0.606,-0.336 -0.967,-0.458c-0.361,-0.123 -0.734,-0.245 -1.117,-0.367c-0.383,-0.122 -0.756,-0.261 -1.117,-0.417c-0.361,-0.155 -0.684,-0.353 -0.967,-0.592c-0.283,-0.239 -0.511,-0.539 -0.684,-0.9c-0.172,-0.361 -0.258,-0.814 -0.258,-1.359c-0,-0.567 0.108,-1.061 0.325,-1.484c0.217,-0.422 0.506,-0.772 0.867,-1.05c0.361,-0.278 0.77,-0.484 1.225,-0.617c0.456,-0.133 0.923,-0.2 1.401,-0.2c0.667,0 1.273,0.106 1.817,0.317c0.545,0.211 1.051,0.583 1.517,1.117l-1.05,0.817Z" style="fill:#4a4a4a;fill-rule:nonzero;"/>
            <path d="M187.405,203.918l1.934,-0c0.533,-0 0.986,-0.056 1.358,-0.167c0.372,-0.111 0.67,-0.258 0.892,-0.441c0.222,-0.184 0.383,-0.4 0.483,-0.65c0.1,-0.25 0.15,-0.52 0.15,-0.809c0,-0.278 -0.05,-0.541 -0.15,-0.791c-0.1,-0.25 -0.261,-0.47 -0.483,-0.659c-0.222,-0.189 -0.52,-0.336 -0.892,-0.441c-0.372,-0.106 -0.825,-0.159 -1.358,-0.159l-1.934,0l0,4.117Zm-1.2,-5.217l3.434,0c1.2,0 2.147,0.261 2.841,0.784c0.695,0.522 1.042,1.311 1.042,2.366c0,1.056 -0.347,1.847 -1.042,2.375c-0.694,0.528 -1.641,0.792 -2.841,0.792l-2.234,-0l0,5.483l-1.2,0l0,-11.8Z" style="fill:#4a4a4a;fill-rule:nonzero;"/>
            <path d="M196.972,203.918l2.133,-0c0.534,-0 0.987,-0.056 1.359,-0.167c0.372,-0.111 0.669,-0.258 0.891,-0.441c0.223,-0.184 0.384,-0.4 0.484,-0.65c0.1,-0.25 0.15,-0.52 0.15,-0.809c-0,-0.278 -0.05,-0.541 -0.15,-0.791c-0.1,-0.25 -0.261,-0.47 -0.484,-0.659c-0.222,-0.189 -0.519,-0.336 -0.891,-0.441c-0.372,-0.106 -0.825,-0.159 -1.359,-0.159l-2.133,0l0,4.117Zm0,6.583l-1.2,0l0,-11.8l3.633,0c1.2,0 2.148,0.261 2.842,0.784c0.695,0.522 1.042,1.311 1.042,2.366c-0,0.822 -0.259,1.514 -0.775,2.075c-0.517,0.561 -1.264,0.886 -2.242,0.975l3.4,5.6l-1.467,0l-3.233,-5.483l-2,-0l0,5.483Z" style="fill:#4a4a4a;fill-rule:nonzero;"/>
            <path d="M215.855,204.601c0,-0.678 -0.111,-1.325 -0.333,-1.941c-0.222,-0.617 -0.542,-1.159 -0.958,-1.625c-0.417,-0.467 -0.925,-0.839 -1.525,-1.117c-0.6,-0.278 -1.278,-0.417 -2.034,-0.417c-0.755,0 -1.433,0.139 -2.033,0.417c-0.6,0.278 -1.108,0.65 -1.525,1.117c-0.417,0.466 -0.736,1.008 -0.958,1.625c-0.222,0.616 -0.334,1.263 -0.334,1.941c0,0.678 0.112,1.325 0.334,1.942c0.222,0.617 0.541,1.158 0.958,1.625c0.417,0.467 0.925,0.839 1.525,1.117c0.6,0.277 1.278,0.416 2.033,0.416c0.756,0 1.434,-0.139 2.034,-0.416c0.6,-0.278 1.108,-0.65 1.525,-1.117c0.416,-0.467 0.736,-1.008 0.958,-1.625c0.222,-0.617 0.333,-1.264 0.333,-1.942Zm1.3,0c0,0.9 -0.155,1.728 -0.466,2.484c-0.311,0.755 -0.742,1.408 -1.292,1.958c-0.55,0.55 -1.2,0.98 -1.95,1.292c-0.75,0.311 -1.564,0.466 -2.442,0.466c-0.877,0 -1.691,-0.155 -2.441,-0.466c-0.75,-0.312 -1.4,-0.742 -1.95,-1.292c-0.55,-0.55 -0.981,-1.203 -1.292,-1.958c-0.311,-0.756 -0.467,-1.584 -0.467,-2.484c0,-0.9 0.156,-1.728 0.467,-2.483c0.311,-0.756 0.742,-1.408 1.292,-1.958c0.55,-0.55 1.2,-0.981 1.95,-1.292c0.75,-0.311 1.564,-0.467 2.441,-0.467c0.878,0 1.692,0.156 2.442,0.467c0.75,0.311 1.4,0.742 1.95,1.292c0.55,0.55 0.981,1.202 1.292,1.958c0.311,0.755 0.466,1.583 0.466,2.483Z" style="fill:#4a4a4a;fill-rule:nonzero;"/>
            <path d="M228.272,200.868c-0.4,-0.422 -0.878,-0.756 -1.433,-1c-0.556,-0.245 -1.2,-0.367 -1.934,-0.367c-0.755,0 -1.433,0.139 -2.033,0.417c-0.6,0.278 -1.108,0.65 -1.525,1.117c-0.417,0.466 -0.736,1.008 -0.958,1.625c-0.222,0.616 -0.334,1.263 -0.334,1.941c0,0.678 0.112,1.325 0.334,1.942c0.222,0.617 0.541,1.158 0.958,1.625c0.417,0.467 0.925,0.839 1.525,1.117c0.6,0.277 1.278,0.416 2.033,0.416c0.612,0 1.198,-0.075 1.759,-0.225c0.561,-0.15 1.064,-0.353 1.508,-0.608l0,-3.95l-2.817,-0l0,-1.1l4.017,-0l0,5.783c-0.667,0.389 -1.397,0.686 -2.192,0.892c-0.794,0.205 -1.552,0.308 -2.275,0.308c-0.877,0 -1.691,-0.155 -2.441,-0.466c-0.75,-0.312 -1.4,-0.742 -1.95,-1.292c-0.55,-0.55 -0.981,-1.203 -1.292,-1.958c-0.311,-0.756 -0.467,-1.584 -0.467,-2.484c0,-0.9 0.156,-1.728 0.467,-2.483c0.311,-0.756 0.742,-1.408 1.292,-1.958c0.55,-0.55 1.2,-0.981 1.95,-1.292c0.75,-0.311 1.564,-0.467 2.441,-0.467c0.945,0 1.759,0.131 2.442,0.392c0.683,0.261 1.292,0.658 1.825,1.192l-0.9,0.883Z" style="fill:#4a4a4a;fill-rule:nonzero;"/>
            <path d="M233.722,203.918l2.133,-0c0.534,-0 0.987,-0.056 1.359,-0.167c0.372,-0.111 0.669,-0.258 0.891,-0.441c0.223,-0.184 0.384,-0.4 0.484,-0.65c0.1,-0.25 0.15,-0.52 0.15,-0.809c-0,-0.278 -0.05,-0.541 -0.15,-0.791c-0.1,-0.25 -0.261,-0.47 -0.484,-0.659c-0.222,-0.189 -0.519,-0.336 -0.891,-0.441c-0.372,-0.106 -0.825,-0.159 -1.359,-0.159l-2.133,0l0,4.117Zm0,6.583l-1.2,0l0,-11.8l3.633,0c1.2,0 2.148,0.261 2.842,0.784c0.695,0.522 1.042,1.311 1.042,2.366c-0,0.822 -0.259,1.514 -0.775,2.075c-0.517,0.561 -1.264,0.886 -2.242,0.975l3.4,5.6l-1.467,0l-3.233,-5.483l-2,-0l0,5.483Z" style="fill:#4a4a4a;fill-rule:nonzero;"/>
            <path d="M243.955,206.301l5.117,0l-2.55,-6.2l-2.567,6.2Zm-1.75,4.2l-1.4,0l5.134,-11.8l1.166,0l5.134,11.8l-1.4,0l-1.3,-3.1l-6.034,0l-1.3,3.1Z" style="fill:#4a4a4a;fill-rule:nonzero;"/>
            <path d="M259.655,208.301l3.984,-9.6l1.833,0l0,11.8l-1.2,0l0,-10.2l-0.033,0l-4.267,10.2l-0.633,0l-4.267,-10.2l-0.033,0l-0,10.2l-1.2,0l-0,-11.8l1.833,0l3.983,9.6Z" style="fill:#4a4a4a;fill-rule:nonzero;"/>
            <path d="M270.222,206.301l5.117,0l-2.55,-6.2l-2.567,6.2Zm-1.75,4.2l-1.4,0l5.133,-11.8l1.167,0l5.133,11.8l-1.4,0l-1.3,-3.1l-6.033,0l-1.3,3.1Z" style="fill:#4a4a4a;fill-rule:nonzero;"/>
            <path d="M285.772,209.401l2.333,0c0.9,0 1.681,-0.136 2.342,-0.408c0.661,-0.272 1.211,-0.633 1.65,-1.083c0.439,-0.45 0.764,-0.962 0.975,-1.534c0.211,-0.572 0.317,-1.164 0.317,-1.775c-0,-0.611 -0.106,-1.203 -0.317,-1.775c-0.211,-0.572 -0.536,-1.083 -0.975,-1.533c-0.439,-0.45 -0.989,-0.811 -1.65,-1.083c-0.661,-0.273 -1.442,-0.409 -2.342,-0.409l-2.333,0l0,9.6Zm-1.2,-10.7l3.917,0c0.733,0 1.469,0.122 2.208,0.367c0.739,0.244 1.406,0.614 2,1.108c0.595,0.495 1.075,1.111 1.442,1.85c0.366,0.739 0.55,1.597 0.55,2.575c-0,0.989 -0.184,1.85 -0.55,2.584c-0.367,0.733 -0.847,1.347 -1.442,1.841c-0.594,0.495 -1.261,0.864 -2,1.109c-0.739,0.244 -1.475,0.366 -2.208,0.366l-3.917,0l0,-11.8Z" style="fill:#4a4a4a;fill-rule:nonzero;"/>
            <path d="M298.289,209.401l6.316,0l0,1.1l-7.516,0l-0,-11.8l7.316,0l0,1.1l-6.116,0l-0,4.017l5.716,-0l0,1.1l-5.716,-0l-0,4.483Z" style="fill:#4a4a4a;fill-rule:nonzero;"/>
            <path d="M312.805,209.401l6.317,0l0,1.1l-7.517,0l0,-11.8l7.317,0l0,1.1l-6.117,0l0,4.017l5.717,-0l0,1.1l-5.717,-0l0,4.483Z" style="fill:#4a4a4a;fill-rule:nonzero;"/>
            <path d="M322.522,209.401l2.333,0c0.9,0 1.681,-0.136 2.342,-0.408c0.661,-0.272 1.211,-0.633 1.65,-1.083c0.439,-0.45 0.764,-0.962 0.975,-1.534c0.211,-0.572 0.317,-1.164 0.317,-1.775c-0,-0.611 -0.106,-1.203 -0.317,-1.775c-0.211,-0.572 -0.536,-1.083 -0.975,-1.533c-0.439,-0.45 -0.989,-0.811 -1.65,-1.083c-0.661,-0.273 -1.442,-0.409 -2.342,-0.409l-2.333,0l0,9.6Zm-1.2,-10.7l3.917,0c0.733,0 1.469,0.122 2.208,0.367c0.739,0.244 1.406,0.614 2,1.108c0.595,0.495 1.075,1.111 1.442,1.85c0.366,0.739 0.55,1.597 0.55,2.575c-0,0.989 -0.184,1.85 -0.55,2.584c-0.367,0.733 -0.847,1.347 -1.442,1.841c-0.594,0.495 -1.261,0.864 -2,1.109c-0.739,0.244 -1.475,0.366 -2.208,0.366l-3.917,0l0,-11.8Z" style="fill:#4a4a4a;fill-rule:nonzero;"/>
            <path d="M342.272,206.101c0,0.489 -0.058,1.009 -0.175,1.559c-0.117,0.55 -0.336,1.058 -0.658,1.525c-0.322,0.466 -0.764,0.852 -1.325,1.158c-0.561,0.305 -1.281,0.458 -2.159,0.458c-0.888,0 -1.611,-0.153 -2.166,-0.458c-0.556,-0.306 -0.995,-0.692 -1.317,-1.158c-0.322,-0.467 -0.542,-0.975 -0.658,-1.525c-0.117,-0.55 -0.175,-1.07 -0.175,-1.559l-0,-7.4l1.2,0l-0,7.267c-0,0.567 0.055,1.053 0.166,1.458c0.112,0.406 0.259,0.747 0.442,1.025c0.183,0.278 0.389,0.497 0.617,0.659c0.228,0.161 0.455,0.286 0.683,0.375c0.228,0.088 0.447,0.147 0.658,0.175c0.212,0.027 0.395,0.041 0.55,0.041c0.145,0 0.325,-0.014 0.542,-0.041c0.217,-0.028 0.439,-0.087 0.667,-0.175c0.228,-0.089 0.455,-0.214 0.683,-0.375c0.228,-0.162 0.433,-0.381 0.617,-0.659c0.183,-0.278 0.33,-0.619 0.441,-1.025c0.112,-0.405 0.167,-0.891 0.167,-1.458l0,-7.267l1.2,0l0,7.4Z" style="fill:#4a4a4a;fill-rule:nonzero;"/>
            <path d="M354.989,208.635c-0.2,0.3 -0.447,0.583 -0.742,0.85c-0.294,0.266 -0.63,0.497 -1.008,0.691c-0.378,0.195 -0.786,0.347 -1.225,0.459c-0.439,0.111 -0.903,0.166 -1.392,0.166c-0.878,0 -1.692,-0.155 -2.442,-0.466c-0.75,-0.312 -1.4,-0.742 -1.95,-1.292c-0.55,-0.55 -0.98,-1.203 -1.291,-1.958c-0.311,-0.756 -0.467,-1.584 -0.467,-2.484c0,-0.9 0.156,-1.728 0.467,-2.483c0.311,-0.756 0.741,-1.408 1.291,-1.958c0.55,-0.55 1.2,-0.981 1.95,-1.292c0.75,-0.311 1.564,-0.467 2.442,-0.467c0.733,0 1.467,0.145 2.2,0.434c0.733,0.288 1.361,0.766 1.883,1.433l-1.05,0.783c-0.122,-0.189 -0.288,-0.378 -0.5,-0.566c-0.211,-0.189 -0.452,-0.356 -0.725,-0.5c-0.272,-0.145 -0.563,-0.262 -0.875,-0.35c-0.311,-0.089 -0.622,-0.134 -0.933,-0.134c-0.755,0 -1.433,0.139 -2.033,0.417c-0.6,0.278 -1.109,0.65 -1.525,1.117c-0.417,0.466 -0.736,1.008 -0.959,1.625c-0.222,0.616 -0.333,1.263 -0.333,1.941c0,0.678 0.111,1.325 0.333,1.942c0.223,0.617 0.542,1.158 0.959,1.625c0.416,0.467 0.925,0.839 1.525,1.117c0.6,0.277 1.278,0.416 2.033,0.416c0.311,0 0.62,-0.028 0.925,-0.083c0.306,-0.056 0.606,-0.15 0.9,-0.283c0.295,-0.134 0.572,-0.314 0.833,-0.542c0.262,-0.228 0.503,-0.514 0.725,-0.858l0.984,0.7Z" style="fill:#4a4a4a;fill-rule:nonzero;"/>
            <path d="M358.555,206.301l5.117,0l-2.55,-6.2l-2.567,6.2Zm-1.75,4.2l-1.4,0l5.134,-11.8l1.166,0l5.134,11.8l-1.4,0l-1.3,-3.1l-6.034,0l-1.3,3.1Z" style="fill:#4a4a4a;fill-rule:nonzero;"/>
            <path d="M372.889,211.501l0.033,0.017c0.089,-0.033 0.181,-0.061 0.275,-0.083c0.095,-0.023 0.203,-0.034 0.325,-0.034c0.333,0 0.631,0.109 0.892,0.325c0.261,0.217 0.391,0.525 0.391,0.925c0,0.256 -0.058,0.478 -0.175,0.667c-0.116,0.189 -0.266,0.342 -0.45,0.458c-0.183,0.117 -0.388,0.203 -0.616,0.259c-0.228,0.055 -0.453,0.083 -0.675,0.083c-0.578,-0 -1.117,-0.133 -1.617,-0.4l0.267,-0.6c0.378,0.2 0.789,0.3 1.233,0.3c0.245,-0 0.478,-0.056 0.7,-0.167c0.222,-0.111 0.333,-0.305 0.333,-0.583c0,-0.045 -0.011,-0.106 -0.033,-0.183c-0.022,-0.078 -0.061,-0.153 -0.117,-0.225c-0.055,-0.073 -0.138,-0.134 -0.25,-0.184c-0.111,-0.05 -0.25,-0.075 -0.416,-0.075c-0.156,0 -0.295,0.017 -0.417,0.05c-0.122,0.034 -0.239,0.078 -0.35,0.134l-0.3,-0.284l0.867,-1.183c-0.5,-0.067 -0.984,-0.195 -1.45,-0.383c-0.745,-0.312 -1.392,-0.742 -1.942,-1.292c-0.55,-0.55 -0.98,-1.203 -1.292,-1.958c-0.311,-0.756 -0.466,-1.584 -0.466,-2.484c-0,-0.9 0.155,-1.728 0.466,-2.483c0.312,-0.756 0.742,-1.408 1.292,-1.958c0.55,-0.55 1.2,-0.981 1.95,-1.292c0.75,-0.311 1.564,-0.467 2.442,-0.467c0.733,0 1.466,0.145 2.2,0.434c0.733,0.288 1.361,0.766 1.883,1.433l-1.05,0.783c-0.122,-0.189 -0.289,-0.378 -0.5,-0.566c-0.211,-0.189 -0.453,-0.356 -0.725,-0.5c-0.272,-0.145 -0.564,-0.262 -0.875,-0.35c-0.311,-0.089 -0.622,-0.134 -0.933,-0.134c-0.756,0 -1.434,0.139 -2.034,0.417c-0.6,0.278 -1.108,0.65 -1.525,1.117c-0.416,0.466 -0.736,1.008 -0.958,1.625c-0.222,0.616 -0.333,1.263 -0.333,1.941c-0,0.678 0.111,1.325 0.333,1.942c0.222,0.617 0.542,1.158 0.958,1.625c0.417,0.467 0.925,0.839 1.525,1.117c0.6,0.277 1.278,0.416 2.034,0.416c0.311,0 0.619,-0.028 0.925,-0.083c0.305,-0.056 0.605,-0.15 0.9,-0.283c0.294,-0.134 0.572,-0.314 0.833,-0.542c0.261,-0.228 0.503,-0.514 0.725,-0.858l0.983,0.7c-0.2,0.3 -0.447,0.583 -0.741,0.85c-0.295,0.266 -0.631,0.497 -1.009,0.691c-0.377,0.195 -0.786,0.347 -1.225,0.459c-0.438,0.111 -0.902,0.166 -1.391,0.166c-0.122,0 -0.245,-0.005 -0.367,-0.016l-0.533,0.716Z" style="fill:#4a4a4a;fill-rule:nonzero;"/>
            <path d="M381.722,206.301l5.117,0l-2.55,-6.2l-2.567,6.2Zm-1.75,4.2l-1.4,0l5.133,-11.8l1.167,0l5.133,11.8l-1.4,0l-1.3,-3.1l-6.033,0l-1.3,3.1Zm1.617,-12.516c0.033,-0.212 0.086,-0.423 0.158,-0.634c0.072,-0.211 0.17,-0.397 0.292,-0.558c0.122,-0.161 0.269,-0.292 0.441,-0.392c0.173,-0.1 0.387,-0.15 0.642,-0.15c0.2,0 0.403,0.039 0.608,0.117c0.206,0.078 0.409,0.167 0.609,0.267c0.2,0.088 0.394,0.175 0.583,0.258c0.189,0.083 0.367,0.125 0.533,0.125c0.256,-0 0.442,-0.086 0.559,-0.258c0.116,-0.173 0.203,-0.364 0.258,-0.575l0.717,-0c-0.034,0.222 -0.086,0.436 -0.159,0.641c-0.072,0.206 -0.169,0.389 -0.291,0.55c-0.122,0.161 -0.272,0.292 -0.45,0.392c-0.178,0.1 -0.389,0.15 -0.634,0.15c-0.2,-0 -0.402,-0.042 -0.608,-0.125c-0.205,-0.083 -0.408,-0.17 -0.608,-0.258c-0.189,-0.1 -0.378,-0.189 -0.567,-0.267c-0.189,-0.078 -0.372,-0.117 -0.55,-0.117c-0.255,0 -0.442,0.086 -0.558,0.259c-0.117,0.172 -0.203,0.363 -0.259,0.575l-0.716,-0Z" style="fill:#4a4a4a;fill-rule:nonzero;"/>
            <path d="M401.805,204.601c0,-0.678 -0.111,-1.325 -0.333,-1.941c-0.222,-0.617 -0.542,-1.159 -0.958,-1.625c-0.417,-0.467 -0.925,-0.839 -1.525,-1.117c-0.6,-0.278 -1.278,-0.417 -2.034,-0.417c-0.755,0 -1.433,0.139 -2.033,0.417c-0.6,0.278 -1.108,0.65 -1.525,1.117c-0.417,0.466 -0.736,1.008 -0.958,1.625c-0.222,0.616 -0.334,1.263 -0.334,1.941c0,0.678 0.112,1.325 0.334,1.942c0.222,0.617 0.541,1.158 0.958,1.625c0.417,0.467 0.925,0.839 1.525,1.117c0.6,0.277 1.278,0.416 2.033,0.416c0.756,0 1.434,-0.139 2.034,-0.416c0.6,-0.278 1.108,-0.65 1.525,-1.117c0.416,-0.467 0.736,-1.008 0.958,-1.625c0.222,-0.617 0.333,-1.264 0.333,-1.942Zm1.3,0c0,0.9 -0.155,1.728 -0.466,2.484c-0.311,0.755 -0.742,1.408 -1.292,1.958c-0.55,0.55 -1.2,0.98 -1.95,1.292c-0.75,0.311 -1.564,0.466 -2.442,0.466c-0.877,0 -1.691,-0.155 -2.441,-0.466c-0.75,-0.312 -1.4,-0.742 -1.95,-1.292c-0.55,-0.55 -0.981,-1.203 -1.292,-1.958c-0.311,-0.756 -0.467,-1.584 -0.467,-2.484c0,-0.9 0.156,-1.728 0.467,-2.483c0.311,-0.756 0.742,-1.408 1.292,-1.958c0.55,-0.55 1.2,-0.981 1.95,-1.292c0.75,-0.311 1.564,-0.467 2.441,-0.467c0.878,0 1.692,0.156 2.442,0.467c0.75,0.311 1.4,0.742 1.95,1.292c0.55,0.55 0.981,1.202 1.292,1.958c0.311,0.755 0.466,1.583 0.466,2.483Z" style="fill:#4a4a4a;fill-rule:nonzero;"/>
        </g>
        <g>
            <path d="M109.334,24.301l0,-20.55" style="fill:none;stroke:#f1af1a;stroke-width:4.17px;"/>
            <path d="M52.465,49.287l-14.531,-14.531" style="fill:none;stroke:#f1af1a;stroke-width:4.17px;"/>
            <path d="M25.386,121.107l-20.55,0" style="fill:none;stroke:#f1af1a;stroke-width:4.17px;"/>
            <path d="M49.064,178.646l-14.531,14.531" style="fill:none;stroke:#f1af1a;stroke-width:4.17px;"/>
            <path d="M127.063,197.402l-34.397,-0" style="fill:none;stroke:#f1af1a;stroke-width:6.25px;"/>
            <path d="M127.063,208.597l-34.397,0" style="fill:none;stroke:#f1af1a;stroke-width:6.25px;"/>
            <path d="M118.855,219.793l-17.785,-0" style="fill:none;stroke:#f1af1a;stroke-width:6.25px;"/>
        </g>
        <g>
            <path d="M67.71,114.94c7.821,-7.945 16.788,-9.398 26.887,-4.536" style="fill:none;stroke:#f1af1a;stroke-width:2.92px;"/>
            <path d="M67.262,108.636l3.119,3.878" style="fill:none;stroke:#f1af1a;stroke-width:2.92px;"/>
            <path d="M73.114,104.578l2.241,4.82" style="fill:none;stroke:#f1af1a;stroke-width:2.92px;"/>
            <path d="M80.261,102.171l0.892,5.576" style="fill:none;stroke:#f1af1a;stroke-width:2.92px;"/>
            <path d="M86.865,107.882l0.556,-5.711" style="fill:none;stroke:#f1af1a;stroke-width:2.92px;"/>
            <path d="M91.898,109.245l2.109,-5.31" style="fill:none;stroke:#f1af1a;stroke-width:2.92px;"/>
        </g>
        <g>
            <path d="M151.724,103.935c-7.821,7.945 -16.788,9.397 -26.887,4.536" style="fill:none;stroke:#7099c4;stroke-width:2.92px;"/>
            <path d="M152.172,110.238l-3.119,-3.877" style="fill:none;stroke:#7099c4;stroke-width:2.92px;"/>
            <path d="M146.32,114.297l-2.241,-4.82" style="fill:none;stroke:#7099c4;stroke-width:2.92px;"/>
            <path d="M139.173,116.703l-0.892,-5.575" style="fill:none;stroke:#7099c4;stroke-width:2.92px;"/>
            <path d="M132.569,110.993l-0.556,5.71" style="fill:none;stroke:#7099c4;stroke-width:2.92px;"/>
            <path d="M127.536,109.63l-2.109,5.31" style="fill:none;stroke:#7099c4;stroke-width:2.92px;"/>
        </g>
    </g>
    <defs>
        <linearGradient id="_Linear1" x1="0" y1="0" x2="1" y2="0" gradientUnits="userSpaceOnUse" gradientTransform="matrix(138.511,0,0,154.663,40.7067,113.936)"><stop offset="0" style="stop-color:#f1af1a;stop-opacity:1"/><stop offset="0.47" style="stop-color:#f1af1a;stop-opacity:1"/><stop offset="0.53" style="stop-color:#7099c4;stop-opacity:1"/><stop offset="1" style="stop-color:#7099c4;stop-opacity:1"/></linearGradient>
    </defs>
</svg>
